<svg xmlns="http://www.w3.org/2000/svg" width="177.263" height="84.378" viewBox="0 0 177.263 84.378">
  <g id="tea_copy_9" data-name="tea copy 9" transform="translate(-552.076 -1551.781)">
    <g id="tea_copy_9-2" data-name="tea copy 9" transform="matrix(1, -0.002, 0.002, 1, 325.853, 1411.146)">
      <path id="Path_3" data-name="Path 3" d="M317.644,184.755H296.861c0-5.9,3.744-11.293,10.972-11.293,10.613,0,9.812,11.293,9.812,11.293m19.491,3.262c0-14.681-8.133-28.482-29.044-28.482-18.459,0-32.529,13.176-32.529,33.628,0,15.433,9.424,32.246,33.434,32.246,20.008,0,26.075-10.917,26.075-17.316a13.488,13.488,0,0,0-.9-4.642c-2.066,2.509-8.132,7.654-18.588,7.654-8.262,0-17.169-3.387-18.331-15.683h39.242a49.1,49.1,0,0,0,.645-7.4m29.66,24.464c-4.517,0-7.358-2.51-7.358-6.65a7.424,7.424,0,0,1,4-6.775c2.839-1.757,7.1-2.385,12.65-3.137v5.144c0,5.145-2.581,11.419-9.294,11.419m30.335,2.006V181.614c0-15.308-10.457-22.083-27.753-22.083-9.165,0-19.75,2.008-26.075,4.894.775,4.14,2.453,11.795,13.168,11.794,3.227,0,7.357-.878,10.714-.878,5.034,0,8.907,1.38,8.907,6.022v4.266c-9.165.628-18.459,1.882-25.559,5.145-7.229,3.262-12.134,9.034-12.134,16.437,0,13.677,10.457,18.193,19.88,18.193,11.618,0,17.684-6.024,18.847-8.407.9,3.89,3.873,8.407,12,8.407,7.1,0,11.746-2.51,13.941-5.145-3.1-.25-5.938-1.756-5.938-5.771M257.071,174.716v29.612c0,4.642,2.969,7.528,9.036,7.528a21.291,21.291,0,0,0,10.069-2.761c0,3.639-3.227,16.312-19.75,16.312-13.167,0-20.4-6.65-20.4-18.7v-32.5l-10.069-1.38V160.79H236.03v-2.761c.129-9.662,6.712-16.688,21.04-16.689v19.449h16.523l-1.29,13.927Z" fill="#040400"/>
    </g>
    <path id="Color_Overlay" data-name="Color Overlay" d="M562.266,1617.445l-.06-32.5-10.072-1.362-.022-12.046,10.069-.017-.005-2.761c.112-9.661,6.682-16.7,21.01-16.726l.036,19.449,16.523-.029-1.265,13.929-15.232.027.055,29.612c.009,4.642,2.984,7.522,9.05,7.511a21.286,21.286,0,0,0,10.064-2.778c.007,3.64-3.2,16.318-19.72,16.347h-.069C569.5,1636.105,562.289,1629.47,562.266,1617.445Zm39.507-13.618c-.039-20.452,14.007-33.651,32.466-33.684,20.911-.037,29.07,13.75,29.1,28.431a49.032,49.032,0,0,1-.631,7.4l-39.242.07c1.184,12.294,10.1,15.666,18.359,15.651,10.456-.018,16.513-5.173,18.574-7.686a13.464,13.464,0,0,1,.913,4.64c.012,6.4-6.035,17.326-26.043,17.361h-.092C611.235,1636.012,601.8,1619.24,601.773,1603.827Zm32.234-19.757c-7.228.013-10.962,5.415-10.951,11.313l20.784-.037s.779-11.276-9.807-11.276Zm30.626,33.7c-.013-7.4,4.881-13.184,12.1-16.458,7.094-3.275,16.385-4.546,25.549-5.189l-.008-4.267c-.008-4.642-3.883-6.015-8.917-6.007-3.357.006-7.485.892-10.713.9-10.715.02-12.406-7.632-13.19-11.771,6.32-2.9,16.9-4.923,26.067-4.939,17.3-.031,27.766,6.727,27.794,22.034l.061,32.873c.008,4.015,2.851,5.516,5.949,5.761-2.19,2.639-6.831,5.157-13.931,5.17-8.131.014-11.11-4.5-12.02-8.385-1.157,2.386-7.213,8.419-18.831,8.44H684.5C675.086,1635.924,664.659,1631.418,664.633,1617.766Zm25.028-8.2a7.425,7.425,0,0,0-3.99,6.782c.008,4.14,2.853,6.645,7.37,6.637,6.713-.012,9.283-6.29,9.273-11.435l-.01-5.144C696.755,1607.17,692.5,1607.8,689.661,1609.566Z" fill="#009548"/>
  </g>
</svg>
