<svg xmlns="http://www.w3.org/2000/svg" width="198.755" height="94.442" viewBox="0 0 198.755 94.442">
  <g id="tea_copy_8" data-name="tea copy 8" transform="translate(-2274.813 -110.694)">
    <g id="tea_copy_8-2" data-name="tea copy 8" transform="matrix(1, -0.002, 0.002, 1, 2021.162, -46.715)">
      <path id="Path_5" data-name="Path 5" d="M356.157,206.792h-23.3c0-6.6,4.2-12.64,12.3-12.64,11.9,0,11,12.64,11,12.64m21.855,3.651c0-16.432-9.119-31.879-32.566-31.879-20.7,0-36.473,14.747-36.473,37.638,0,17.274,10.567,36.093,37.487,36.092,22.434,0,29.237-12.219,29.237-19.381a15.073,15.073,0,0,0-1.014-5.2c-2.316,2.809-9.118,8.567-20.842,8.567-9.264,0-19.25-3.792-20.553-17.554l44,0a54.868,54.868,0,0,0,.723-8.285m33.256,27.382c-5.065,0-8.25-2.809-8.25-7.443,0-3.651,1.736-5.9,4.487-7.583,3.184-1.967,7.96-2.669,14.183-3.512v5.757c0,5.758-2.894,12.781-10.42,12.781m34.013,2.246V203.277c0-17.134-11.724-24.717-31.118-24.717-10.277,0-22.145,2.247-29.237,5.478.869,4.634,2.75,13.2,14.764,13.2,3.618,0,8.249-.983,12.013-.983,5.644,0,9.987,1.544,9.987,6.74v4.775c-10.277.7-20.7,2.107-28.658,5.758-8.105,3.651-13.6,10.112-13.6,18.4,0,15.308,11.724,20.363,22.29,20.363,13.026,0,19.829-6.742,21.132-9.41,1.013,4.354,4.342,9.409,13.46,9.409,7.961,0,13.17-2.809,15.631-5.759-3.474-.28-6.657-1.966-6.658-6.46M288.24,195.556V228.7c0,5.2,3.329,8.426,10.132,8.426a23.9,23.9,0,0,0,11.29-3.09c0,4.073-3.618,18.258-22.145,18.258-14.763,0-22.868-7.443-22.869-20.925V194.994l-11.29-1.544V179.968h11.29v-3.09c.145-10.814,7.526-18.679,23.592-18.679v21.768h18.526l-1.447,15.589Z" fill="#040400"/>
    </g>
    <path id="Color_Overlay" data-name="Color Overlay" d="M2286.24,184.19l-.068-36.373-11.293-1.524-.024-13.483,11.29-.02-.006-3.09c.125-10.814,7.491-18.691,23.556-18.721l.041,21.769,18.527-.032-1.417,15.591-17.078.03.062,33.144c.009,5.2,3.344,8.42,10.147,8.408a23.9,23.9,0,0,0,11.283-3.109c.008,4.072-3.584,18.264-22.11,18.3h-.078C2294.354,205.076,2286.265,197.649,2286.24,184.19Zm44.3-15.242c-.043-22.891,15.706-37.665,36.4-37.7,23.447-.041,32.594,15.39,32.625,31.822a54.928,54.928,0,0,1-.708,8.286l-44,.078c1.329,13.76,11.323,17.536,20.586,17.518,11.724-.021,18.515-5.791,20.826-8.6a15.07,15.07,0,0,1,1.023,5.194c.013,7.162-6.767,19.392-29.2,19.432h-.1C2341.143,204.974,2330.568,186.2,2330.536,168.948Zm36.141-22.113c-8.1.014-12.291,6.061-12.278,12.662l23.3-.041s.875-12.621-11-12.621Zm34.34,37.714c-.015-8.286,5.472-14.756,13.57-18.421,7.954-3.666,18.372-5.089,28.647-5.809l-.009-4.775c-.01-5.2-4.354-6.733-10-6.723-3.764.007-8.393,1-12.01,1-12.014.022-13.911-8.543-14.789-13.175,7.086-3.243,18.949-5.511,29.227-5.529,19.394-.035,31.132,7.529,31.164,24.662l.068,36.795c.009,4.494,3.2,6.174,6.671,6.448-2.455,2.954-7.66,5.773-15.62,5.786-9.118.016-12.457-5.034-13.478-9.385-1.3,2.67-8.088,9.424-21.115,9.446h-.059C2412.736,204.873,2401.046,199.829,2401.017,184.549Zm28.062-9.177c-2.748,1.689-4.48,3.939-4.473,7.591.009,4.634,3.2,7.438,8.264,7.429,7.527-.013,10.408-7.041,10.4-12.8l-.011-5.757C2437.033,172.689,2432.259,173.4,2429.079,175.372Z"/>
  </g>
</svg>
